# xmcd
#
# Track frame offsets:
#	150
#	17460
#	38620
#	54352
#	72390
#	85830
#	103315
#	117392
#	138785
#	152372
#	167645
#	182182
#
# Disc length: 2617 seconds
#
# Revision: 1
# Processed by: cddbd v1.5.1PL0 Copyright (c) Steve Scherf et al.
# Submitted via: EasyCDDAExtractor 7.0.5.4
#
DISCID=920a370c
DTITLE=Lise Lapointe - Nous les artistes country
DYEAR=1900
DGENRE=Country
TTITLE0=Nous les artistes country
TTITLE1=Regarde l'étoile
TTITLE2=Mon coeur ne fait plus mal
TTITLE3=J'oublierai ton nom
TTITLE4=Troubadour tyrolienne
TTITLE5=Don Carmelo
TTITLE6=Je pense à toi
TTITLE7=Je t'attends dans mes rêves
TTITLE8=Dis-moi ton nom
TTITLE9=Chéri, réponds-moi
TTITLE10=Ce n'est qu'un rêve
TTITLE11=Let's go Vegas
EXTD=
EXTT0=
EXTT1=
EXTT2=
EXTT3=
EXTT4=
EXTT5=
EXTT6=
EXTT7=
EXTT8=
EXTT9=
EXTT10=
EXTT11=
PLAYORDER=
